<?xml version="1.0" standalone="no"?><!DOCTYPE svg PUBLIC "-//W3C//DTD SVG 1.1//EN" "http://www.w3.org/Graphics/SVG/1.1/DTD/svg11.dtd"><svg width="100%" height="100%" viewBox="0 0 418 418" version="1.1" xmlns="http://www.w3.org/2000/svg" xmlns:xlink="http://www.w3.org/1999/xlink" xml:space="preserve" style="fill-rule:evenodd;clip-rule:evenodd;stroke-linejoin:round;stroke-miterlimit:1.41421;"><g id="Group"><g id="MeisterTask_1_"><g id="BAdge"><ellipse cx="208.55" cy="208.55" rx="199.92" ry="201.45" style="fill:#fff;"/><path d="M209.211,2.416l0.661,0.003l0.66,0.005l0.66,0.007l0.659,0.01l0.659,0.012l0.659,0.013l0.657,0.016l0.658,0.018l0.657,0.02l0.656,0.022l0.656,0.024l0.655,0.026l0.655,0.028l0.654,0.031l0.654,0.032l0.653,0.035l0.653,0.036l0.652,0.039l0.651,0.04l0.651,0.043l0.651,0.045l0.65,0.046l0.649,0.049l0.649,0.051l0.648,0.053l0.648,0.055l0.647,0.057l0.647,0.059l0.646,0.061l0.645,0.063l0.645,0.065l0.644,0.067l0.644,0.069l0.643,0.071l0.643,0.073l0.642,0.075l0.641,0.077l0.641,0.079l0.64,0.081l0.639,0.083l0.639,0.086l0.638,0.087l0.638,0.089l0.637,0.09l0.637,0.093l0.635,0.095l0.636,0.097l0.634,0.099l0.634,0.101l0.633,0.103l0.633,0.104l0.632,0.107l0.631,0.109l0.631,0.11l0.63,0.113l0.629,0.114l0.629,0.116l0.628,0.119l0.627,0.12l0.627,0.122l0.626,0.124l0.625,0.126l0.625,0.128l0.624,0.13l0.623,0.132l0.623,0.133l0.621,0.136l0.622,0.137l0.62,0.14l0.62,0.141l0.619,0.143l0.618,0.145l0.618,0.147l0.617,0.149l0.616,0.15l0.615,0.153l0.615,0.154l0.614,0.156l0.613,0.159l0.613,0.16l0.612,0.161l0.611,0.164l0.61,0.166l0.61,0.167l0.608,0.169l0.608,0.171l0.608,0.173l0.606,0.175l0.606,0.177l0.605,0.178l0.604,0.18l0.603,0.182l0.603,0.184l0.602,0.186l0.601,0.188l0.6,0.189l0.6,0.191l0.598,0.193l0.598,0.195l0.597,0.196l0.597,0.199l0.595,0.2l0.595,0.202l0.594,0.203l0.593,0.206l0.592,0.207l0.591,0.209l0.591,0.211l0.59,0.213l0.588,0.214l0.588,0.216l0.588,0.218l0.586,0.219l0.586,0.222l0.584,0.223l0.584,0.225l0.583,0.226l0.582,0.229l0.581,0.23l0.581,0.232l0.579,0.233l0.579,0.235l0.578,0.237l0.576,0.239l0.576,0.241l0.576,0.242l0.574,0.244l0.573,0.245l0.573,0.247l0.571,0.249l0.571,0.251l0.569,0.253l0.569,0.254l0.568,0.255l0.567,0.258l0.566,0.259l0.565,0.261l0.565,0.262l0.563,0.264l0.562,0.266l0.562,0.268l0.56,0.269l0.56,0.271l0.558,0.272l0.558,0.274l0.557,0.276l0.556,0.277l0.554,0.279l0.554,0.281l0.553,0.282l0.552,0.284l0.551,0.286l0.55,0.287l0.549,0.289l0.548,0.29l0.547,0.293l0.546,0.293l0.545,0.296l0.545,0.297l0.543,0.298l0.542,0.3l0.541,0.302l0.54,0.303l0.539,0.305l0.538,0.307l0.537,0.308l0.536,0.309l0.535,0.312l0.535,0.313l0.533,0.314l0.532,0.316l0.531,0.317l0.529,0.32l0.529,0.32l0.528,0.323l0.527,0.323l0.526,0.326l0.524,0.327l0.524,0.328l0.523,0.33l0.521,0.331l0.521,0.333l0.519,0.335l0.519,0.336l0.517,0.338l0.516,0.339l0.515,0.341l0.514,0.342l0.513,0.344l0.512,0.345l0.511,0.346l0.51,0.349l0.508,0.349l0.508,0.352l0.506,0.352l0.505,0.355l0.505,0.355l0.503,0.357l0.502,0.359l0.5,0.36l0.5,0.362l0.499,0.363l0.497,0.365l0.497,0.366l0.495,0.367l0.494,0.369l0.493,0.37l0.491,0.372l0.491,0.373l0.49,0.375l0.488,0.376l0.487,0.378l0.486,0.379l0.485,0.381l0.484,0.382l0.482,0.383l0.482,0.385l0.48,0.386l0.479,0.388l0.478,0.389l0.476,0.39l0.476,0.392l0.474,0.393l0.473,0.395l0.472,0.396l0.471,0.397l0.469,0.399l0.468,0.401l0.467,0.401l0.466,0.403l0.465,0.405l0.463,0.405l0.462,0.407l0.461,0.409l0.46,0.41l0.459,0.411l0.457,0.413l0.456,0.414l0.455,0.415l0.453,0.417l0.453,0.418l0.451,0.419l0.45,0.421l0.448,0.422l0.447,0.423l0.447,0.425l0.444,0.426l0.444,0.427l0.442,0.429l0.441,0.43l0.44,0.431l0.438,0.433l0.437,0.434l0.436,0.435l0.435,0.437l0.433,0.438l0.432,0.439l0.43,0.44l0.43,0.442l0.428,0.443l0.427,0.444l0.425,0.446l0.424,0.447l0.423,0.448l0.421,0.45l0.421,0.45l0.418,0.452l0.418,0.454l0.416,0.454l0.415,0.456l0.413,0.457l0.413,0.458l0.41,0.46l0.41,0.46l0.408,0.462l0.407,0.464l0.405,0.464l0.404,0.466l0.403,0.467l0.401,0.468l0.4,0.469l0.398,0.471l0.398,0.472l0.395,0.473l0.395,0.474l0.393,0.475l0.392,0.477l0.39,0.478l0.389,0.479l0.387,0.48l0.386,0.481l0.385,0.483l0.383,0.484l0.382,0.485l0.38,0.486l0.379,0.487l0.378,0.489l0.376,0.49l0.375,0.49l0.373,0.492l0.372,0.494l0.37,0.494l0.369,0.495l0.368,0.497l0.366,0.498l0.364,0.499l0.364,0.5l0.361,0.501l0.361,0.502l0.358,0.504l0.358,0.504l0.356,0.506l0.354,0.507l0.353,0.508l0.351,0.509l0.35,0.51l0.349,0.511l0.347,0.513l0.345,0.513l0.344,0.515l0.343,0.516l0.341,0.516l0.339,0.518l0.338,0.519l0.337,0.52l0.335,0.521l0.333,0.523l0.332,0.523l0.331,0.524l0.329,0.526l0.327,0.526l0.326,0.528l0.324,0.528l0.323,0.53l0.321,0.531l0.32,0.531l0.318,0.533l0.317,0.534l0.315,0.535l0.313,0.536l0.312,0.537l0.311,0.538l0.309,0.539l0.307,0.54l0.306,0.541l0.304,0.542l0.302,0.543l0.301,0.544l0.299,0.545l0.298,0.547l0.296,0.547l0.295,0.548l0.293,0.549l0.291,0.55l0.29,0.551l0.288,0.552l0.287,0.553l0.285,0.554l0.283,0.555l0.282,0.556l0.28,0.557l0.279,0.558l0.276,0.559l0.276,0.56l0.273,0.561l0.272,0.561l0.27,0.563l0.269,0.564l0.267,0.564l0.265,0.566l0.264,0.567l0.262,0.567l0.261,0.568l0.258,0.57l0.257,0.57l0.256,0.571l0.253,0.572l0.253,0.573l0.25,0.574l0.249,0.575l0.247,0.575l0.245,0.577l0.243,0.577l0.242,0.579l0.241,0.579l0.238,0.58l0.237,0.581l0.235,0.582l0.233,0.583l0.232,0.584l0.23,0.584l0.228,0.586l0.227,0.586l0.225,0.587l0.223,0.589l0.221,0.588l0.22,0.59l0.218,0.591l0.216,0.591l0.214,0.593l0.213,0.593l0.211,0.594l0.209,0.595l0.207,0.595l0.206,0.597l0.203,0.597l0.203,0.598l0.2,0.599l0.198,0.6l0.197,0.601l0.195,0.601l0.193,0.602l0.192,0.603l0.189,0.604l0.188,0.605l0.186,0.605l0.184,0.606l0.183,0.607l0.18,0.608l0.179,0.608l0.177,0.61l0.175,0.61l0.174,0.611l0.171,0.611l0.17,0.613l0.168,0.613l0.166,0.614l0.164,0.615l0.162,0.615l0.161,0.616l0.159,0.617l0.157,0.618l0.155,0.618l0.153,0.619l0.151,0.62l0.149,0.621l0.148,0.621l0.146,0.622l0.143,0.623l0.142,0.623l0.141,0.625l0.138,0.625l0.136,0.625l0.135,0.627l0.132,0.627l0.131,0.627l0.129,0.629l0.126,0.629l0.125,0.63l0.123,0.63l0.122,0.631l0.119,0.632l0.117,0.633l0.116,0.633l0.113,0.634l0.112,0.634l0.109,0.635l0.108,0.636l0.106,0.637l0.104,0.637l0.102,0.638l0.1,0.638l0.098,0.639l0.096,0.64l0.094,0.64l0.092,0.641l0.09,0.642l0.089,0.642l0.086,0.643l0.084,0.643l0.083,0.644l0.08,0.645l0.079,0.645l0.076,0.646l0.075,0.647l0.072,0.647l0.071,0.648l0.068,0.648l0.067,0.649l0.064,0.649l0.063,0.65l0.06,0.651l0.059,0.651l0.056,0.652l0.055,0.652l0.052,0.653l0.05,0.654l0.049,0.654l0.046,0.654l0.045,0.655l0.042,0.656l0.04,0.656l0.038,0.657l0.037,0.657l0.034,0.658l0.032,0.659l0.03,0.658l0.028,0.66l0.026,0.66l0.024,0.66l0.022,0.661l0.02,0.662l0.017,0.662l0.016,0.663l0.014,0.662l0.011,0.664l0.009,0.664l0.008,0.665l0.005,0.665l0.003,0.665l0.001,0.666l-0.001,0.666l-0.003,0.665l-0.005,0.665l-0.008,0.665l-0.009,0.664l-0.011,0.664l-0.014,0.662l-0.016,0.663l-0.017,0.662l-0.02,0.662l-0.022,0.661l-0.024,0.66l-0.026,0.66l-0.028,0.66l-0.03,0.658l-0.032,0.659l-0.034,0.658l-0.037,0.657l-0.038,0.657l-0.04,0.656l-0.042,0.656l-0.045,0.655l-0.046,0.654l-0.049,0.654l-0.05,0.654l-0.052,0.653l-0.055,0.652l-0.056,0.652l-0.059,0.651l-0.06,0.651l-0.063,0.65l-0.064,0.649l-0.067,0.649l-0.068,0.648l-0.071,0.648l-0.072,0.647l-0.075,0.647l-0.076,0.646l-0.079,0.645l-0.08,0.645l-0.083,0.644l-0.084,0.643l-0.086,0.643l-0.089,0.642l-0.09,0.642l-0.092,0.641l-0.094,0.64l-0.096,0.64l-0.098,0.639l-0.1,0.638l-0.102,0.638l-0.104,0.637l-0.106,0.637l-0.108,0.636l-0.109,0.635l-0.112,0.634l-0.113,0.634l-0.116,0.633l-0.117,0.633l-0.119,0.632l-0.122,0.631l-0.123,0.63l-0.125,0.63l-0.126,0.629l-0.129,0.629l-0.131,0.627l-0.132,0.627l-0.135,0.627l-0.136,0.625l-0.138,0.625l-0.141,0.625l-0.142,0.623l-0.143,0.623l-0.146,0.622l-0.148,0.621l-0.149,0.621l-0.151,0.62l-0.153,0.619l-0.155,0.618l-0.157,0.618l-0.159,0.617l-0.161,0.616l-0.162,0.615l-0.164,0.615l-0.166,0.614l-0.168,0.613l-0.17,0.613l-0.171,0.611l-0.174,0.611l-0.175,0.61l-0.177,0.61l-0.179,0.608l-0.18,0.608l-0.183,0.607l-0.184,0.606l-0.186,0.605l-0.188,0.605l-0.189,0.604l-0.192,0.603l-0.193,0.602l-0.195,0.601l-0.197,0.601l-0.198,0.6l-0.2,0.599l-0.203,0.598l-0.203,0.597l-0.206,0.597l-0.207,0.595l-0.209,0.595l-0.211,0.594l-0.213,0.593l-0.214,0.593l-0.216,0.591l-0.218,0.591l-0.22,0.59l-0.221,0.588l-0.223,0.589l-0.225,0.587l-0.227,0.586l-0.228,0.585l-0.23,0.585l-0.232,0.584l-0.233,0.583l-0.235,0.582l-0.237,0.581l-0.238,0.58l-0.241,0.579l-0.242,0.579l-0.243,0.577l-0.245,0.577l-0.247,0.575l-0.249,0.575l-0.25,0.574l-0.253,0.573l-0.253,0.572l-0.256,0.571l-0.257,0.57l-0.258,0.57l-0.261,0.568l-0.262,0.567l-0.264,0.567l-0.265,0.566l-0.267,0.564l-0.269,0.564l-0.27,0.563l-0.272,0.561l-0.273,0.561l-0.276,0.56l-0.276,0.559l-0.279,0.558l-0.28,0.557l-0.282,0.556l-0.283,0.555l-0.285,0.554l-0.287,0.553l-0.288,0.552l-0.29,0.551l-0.291,0.55l-0.293,0.549l-0.295,0.548l-0.296,0.547l-0.298,0.547l-0.299,0.545l-0.301,0.544l-0.302,0.543l-0.304,0.542l-0.306,0.541l-0.307,0.54l-0.309,0.539l-0.311,0.538l-0.312,0.537l-0.313,0.536l-0.315,0.535l-0.317,0.534l-0.318,0.533l-0.32,0.531l-0.321,0.531l-0.323,0.53l-0.324,0.528l-0.326,0.528l-0.327,0.526l-0.329,0.526l-0.331,0.524l-0.331,0.523l-0.334,0.523l-0.335,0.521l-0.337,0.52l-0.338,0.519l-0.339,0.518l-0.341,0.516l-0.343,0.516l-0.344,0.515l-0.345,0.513l-0.347,0.513l-0.349,0.511l-0.35,0.51l-0.351,0.509l-0.353,0.508l-0.354,0.507l-0.356,0.506l-0.358,0.504l-0.358,0.504l-0.361,0.502l-0.361,0.501l-0.364,0.5l-0.364,0.499l-0.366,0.498l-0.368,0.497l-0.369,0.495l-0.37,0.494l-0.372,0.494l-0.373,0.492l-0.375,0.49l-0.376,0.49l-0.378,0.489l-0.379,0.487l-0.38,0.486l-0.382,0.485l-0.383,0.484l-0.385,0.483l-0.386,0.481l-0.387,0.48l-0.389,0.479l-0.39,0.478l-0.392,0.477l-0.393,0.475l-0.394,0.474l-0.396,0.473l-0.398,0.472l-0.398,0.471l-0.4,0.469l-0.401,0.468l-0.403,0.467l-0.404,0.466l-0.405,0.464l-0.407,0.464l-0.408,0.462l-0.41,0.46l-0.41,0.46l-0.413,0.458l-0.413,0.457l-0.415,0.456l-0.416,0.454l-0.418,0.454l-0.418,0.452l-0.421,0.45l-0.421,0.45l-0.423,0.448l-0.424,0.447l-0.425,0.446l-0.427,0.444l-0.428,0.443l-0.43,0.442l-0.43,0.44l-0.432,0.439l-0.433,0.438l-0.435,0.437l-0.436,0.435l-0.437,0.434l-0.438,0.433l-0.44,0.431l-0.441,0.43l-0.442,0.429l-0.444,0.427l-0.445,0.426l-0.446,0.425l-0.447,0.423l-0.448,0.422l-0.45,0.421l-0.451,0.419l-0.453,0.418l-0.453,0.417l-0.455,0.415l-0.456,0.414l-0.457,0.413l-0.459,0.411l-0.459,0.41l-0.462,0.409l-0.462,0.407l-0.463,0.405l-0.465,0.405l-0.466,0.403l-0.467,0.402l-0.468,0.4l-0.469,0.399l-0.471,0.397l-0.472,0.396l-0.473,0.395l-0.474,0.393l-0.476,0.392l-0.476,0.39l-0.478,0.389l-0.479,0.388l-0.48,0.386l-0.482,0.385l-0.482,0.383l-0.484,0.382l-0.485,0.381l-0.486,0.379l-0.487,0.378l-0.488,0.376l-0.49,0.375l-0.491,0.373l-0.491,0.372l-0.493,0.37l-0.494,0.369l-0.495,0.367l-0.497,0.366l-0.497,0.365l-0.499,0.363l-0.5,0.362l-0.5,0.36l-0.502,0.359l-0.503,0.357l-0.505,0.355l-0.505,0.355l-0.506,0.352l-0.508,0.352l-0.509,0.349l-0.509,0.349l-0.511,0.346l-0.512,0.345l-0.513,0.344l-0.514,0.342l-0.515,0.341l-0.516,0.339l-0.517,0.338l-0.519,0.336l-0.519,0.335l-0.521,0.333l-0.521,0.331l-0.523,0.33l-0.523,0.328l-0.525,0.327l-0.526,0.326l-0.527,0.324l-0.528,0.322l-0.529,0.32l-0.529,0.32l-0.532,0.317l-0.531,0.316l-0.533,0.314l-0.534,0.313l-0.536,0.312l-0.536,0.309l-0.537,0.308l-0.538,0.307l-0.539,0.305l-0.54,0.303l-0.541,0.302l-0.542,0.3l-0.543,0.299l-0.545,0.296l-0.545,0.296l-0.546,0.293l-0.547,0.293l-0.548,0.29l-0.549,0.289l-0.55,0.287l-0.551,0.286l-0.552,0.284l-0.553,0.282l-0.554,0.281l-0.554,0.279l-0.556,0.277l-0.557,0.276l-0.558,0.274l-0.558,0.273l-0.56,0.27l-0.56,0.269l-0.562,0.268l-0.562,0.266l-0.563,0.264l-0.565,0.262l-0.565,0.261l-0.566,0.259l-0.567,0.258l-0.568,0.255l-0.569,0.255l-0.569,0.252l-0.571,0.251l-0.571,0.248l-0.573,0.248l-0.573,0.245l-0.574,0.244l-0.576,0.242l-0.576,0.241l-0.576,0.239l-0.578,0.237l-0.579,0.235l-0.579,0.233l-0.581,0.232l-0.581,0.23l-0.582,0.229l-0.583,0.226l-0.584,0.225l-0.584,0.223l-0.586,0.222l-0.586,0.219l-0.588,0.218l-0.588,0.216l-0.588,0.214l-0.59,0.213l-0.591,0.211l-0.591,0.209l-0.592,0.207l-0.593,0.206l-0.594,0.203l-0.595,0.202l-0.595,0.2l-0.597,0.199l-0.597,0.196l-0.598,0.195l-0.598,0.193l-0.6,0.191l-0.6,0.189l-0.601,0.188l-0.602,0.186l-0.603,0.184l-0.603,0.182l-0.604,0.18l-0.605,0.178l-0.606,0.177l-0.606,0.175l-0.608,0.173l-0.608,0.171l-0.609,0.169l-0.609,0.167l-0.61,0.166l-0.611,0.164l-0.612,0.161l-0.613,0.16l-0.613,0.159l-0.614,0.156l-0.615,0.154l-0.615,0.153l-0.616,0.15l-0.617,0.149l-0.618,0.147l-0.618,0.145l-0.619,0.143l-0.62,0.141l-0.62,0.14l-0.622,0.137l-0.621,0.136l-0.623,0.133l-0.623,0.132l-0.624,0.13l-0.625,0.128l-0.625,0.126l-0.626,0.124l-0.627,0.122l-0.627,0.12l-0.628,0.119l-0.629,0.116l-0.629,0.114l-0.63,0.113l-0.631,0.11l-0.631,0.109l-0.632,0.107l-0.633,0.104l-0.633,0.103l-0.634,0.101l-0.634,0.099l-0.636,0.097l-0.635,0.095l-0.637,0.092l-0.637,0.091l-0.638,0.089l-0.638,0.087l-0.639,0.086l-0.639,0.083l-0.64,0.081l-0.641,0.079l-0.641,0.077l-0.642,0.075l-0.643,0.073l-0.643,0.071l-0.644,0.069l-0.644,0.067l-0.645,0.065l-0.645,0.063l-0.646,0.061l-0.647,0.059l-0.647,0.057l-0.648,0.055l-0.648,0.053l-0.649,0.051l-0.649,0.049l-0.65,0.046l-0.651,0.045l-0.651,0.043l-0.651,0.04l-0.652,0.039l-0.653,0.036l-0.653,0.035l-0.654,0.032l-0.654,0.031l-0.655,0.028l-0.655,0.026l-0.656,0.024l-0.656,0.022l-0.657,0.02l-0.658,0.018l-0.657,0.016l-0.659,0.013l-0.659,0.012l-0.659,0.01l-0.66,0.007l-0.66,0.005l-0.661,0.003l-0.661,0.001l-0.661,-0.001l-0.661,-0.003l-0.66,-0.005l-0.66,-0.007l-0.659,-0.01l-0.659,-0.012l-0.659,-0.013l-0.657,-0.016l-0.658,-0.018l-0.657,-0.02l-0.656,-0.022l-0.656,-0.024l-0.655,-0.026l-0.655,-0.028l-0.654,-0.031l-0.654,-0.032l-0.653,-0.035l-0.653,-0.036l-0.652,-0.039l-0.651,-0.04l-0.651,-0.043l-0.651,-0.045l-0.65,-0.046l-0.649,-0.049l-0.649,-0.051l-0.648,-0.053l-0.648,-0.055l-0.647,-0.057l-0.647,-0.059l-0.646,-0.061l-0.645,-0.063l-0.645,-0.065l-0.644,-0.067l-0.644,-0.069l-0.643,-0.071l-0.643,-0.073l-0.642,-0.075l-0.641,-0.077l-0.641,-0.079l-0.64,-0.081l-0.639,-0.083l-0.639,-0.086l-0.638,-0.087l-0.638,-0.089l-0.637,-0.091l-0.637,-0.092l-0.635,-0.095l-0.636,-0.097l-0.634,-0.099l-0.634,-0.101l-0.633,-0.103l-0.633,-0.104l-0.632,-0.107l-0.631,-0.109l-0.631,-0.11l-0.63,-0.113l-0.629,-0.114l-0.629,-0.116l-0.628,-0.119l-0.627,-0.12l-0.627,-0.122l-0.626,-0.124l-0.625,-0.126l-0.625,-0.128l-0.624,-0.13l-0.623,-0.132l-0.623,-0.133l-0.621,-0.136l-0.622,-0.137l-0.62,-0.14l-0.62,-0.141l-0.619,-0.143l-0.618,-0.145l-0.618,-0.147l-0.617,-0.149l-0.616,-0.15l-0.615,-0.153l-0.615,-0.154l-0.614,-0.156l-0.613,-0.159l-0.613,-0.16l-0.612,-0.161l-0.611,-0.164l-0.61,-0.166l-0.609,-0.167l-0.609,-0.169l-0.608,-0.171l-0.608,-0.173l-0.606,-0.175l-0.606,-0.177l-0.605,-0.178l-0.604,-0.18l-0.603,-0.182l-0.603,-0.184l-0.602,-0.186l-0.601,-0.188l-0.6,-0.189l-0.6,-0.191l-0.598,-0.193l-0.598,-0.195l-0.597,-0.196l-0.597,-0.199l-0.595,-0.2l-0.595,-0.202l-0.594,-0.203l-0.593,-0.206l-0.592,-0.207l-0.591,-0.209l-0.591,-0.211l-0.59,-0.213l-0.588,-0.214l-0.588,-0.216l-0.588,-0.218l-0.586,-0.219l-0.586,-0.222l-0.584,-0.223l-0.584,-0.225l-0.583,-0.226l-0.582,-0.229l-0.581,-0.23l-0.581,-0.232l-0.579,-0.233l-0.579,-0.235l-0.578,-0.237l-0.576,-0.239l-0.576,-0.241l-0.576,-0.242l-0.574,-0.244l-0.573,-0.245l-0.573,-0.248l-0.571,-0.248l-0.571,-0.251l-0.569,-0.252l-0.569,-0.255l-0.568,-0.255l-0.567,-0.258l-0.566,-0.259l-0.565,-0.261l-0.565,-0.262l-0.563,-0.264l-0.562,-0.266l-0.562,-0.268l-0.56,-0.269l-0.56,-0.27l-0.558,-0.273l-0.558,-0.274l-0.557,-0.276l-0.556,-0.277l-0.554,-0.279l-0.554,-0.281l-0.553,-0.282l-0.552,-0.284l-0.551,-0.286l-0.55,-0.287l-0.549,-0.289l-0.548,-0.29l-0.547,-0.293l-0.546,-0.293l-0.545,-0.296l-0.545,-0.296l-0.543,-0.299l-0.542,-0.3l-0.541,-0.302l-0.54,-0.303l-0.539,-0.305l-0.538,-0.307l-0.537,-0.308l-0.536,-0.309l-0.536,-0.312l-0.534,-0.313l-0.533,-0.314l-0.532,-0.316l-0.53,-0.317l-0.53,-0.32l-0.529,-0.32l-0.528,-0.322l-0.527,-0.324l-0.526,-0.326l-0.525,-0.327l-0.523,-0.328l-0.523,-0.33l-0.521,-0.331l-0.521,-0.333l-0.519,-0.335l-0.519,-0.336l-0.517,-0.338l-0.516,-0.339l-0.515,-0.341l-0.514,-0.342l-0.513,-0.344l-0.512,-0.345l-0.511,-0.346l-0.509,-0.349l-0.509,-0.349l-0.508,-0.352l-0.506,-0.352l-0.505,-0.355l-0.505,-0.355l-0.503,-0.357l-0.502,-0.359l-0.5,-0.36l-0.5,-0.362l-0.499,-0.363l-0.497,-0.365l-0.497,-0.366l-0.495,-0.367l-0.494,-0.369l-0.493,-0.37l-0.491,-0.372l-0.491,-0.373l-0.49,-0.375l-0.488,-0.376l-0.487,-0.378l-0.486,-0.379l-0.485,-0.381l-0.484,-0.382l-0.482,-0.383l-0.482,-0.385l-0.48,-0.386l-0.479,-0.388l-0.478,-0.389l-0.476,-0.39l-0.476,-0.392l-0.474,-0.393l-0.473,-0.395l-0.472,-0.396l-0.471,-0.397l-0.469,-0.399l-0.468,-0.4l-0.467,-0.402l-0.466,-0.403l-0.465,-0.405l-0.463,-0.405l-0.462,-0.407l-0.461,-0.409l-0.46,-0.41l-0.459,-0.411l-0.457,-0.413l-0.456,-0.414l-0.455,-0.415l-0.453,-0.417l-0.453,-0.418l-0.451,-0.419l-0.45,-0.421l-0.448,-0.422l-0.448,-0.423l-0.445,-0.425l-0.445,-0.426l-0.444,-0.427l-0.442,-0.429l-0.441,-0.43l-0.44,-0.431l-0.438,-0.433l-0.437,-0.434l-0.436,-0.435l-0.435,-0.437l-0.433,-0.438l-0.432,-0.439l-0.43,-0.44l-0.43,-0.442l-0.428,-0.443l-0.427,-0.444l-0.425,-0.446l-0.424,-0.447l-0.423,-0.448l-0.421,-0.45l-0.421,-0.45l-0.418,-0.452l-0.418,-0.454l-0.416,-0.454l-0.415,-0.456l-0.413,-0.457l-0.413,-0.458l-0.41,-0.46l-0.41,-0.46l-0.408,-0.462l-0.407,-0.464l-0.405,-0.464l-0.404,-0.466l-0.403,-0.467l-0.401,-0.468l-0.4,-0.469l-0.398,-0.471l-0.398,-0.472l-0.395,-0.473l-0.395,-0.474l-0.393,-0.475l-0.392,-0.477l-0.39,-0.478l-0.389,-0.479l-0.387,-0.48l-0.386,-0.482l-0.385,-0.482l-0.383,-0.484l-0.382,-0.485l-0.38,-0.486l-0.379,-0.487l-0.378,-0.489l-0.376,-0.49l-0.375,-0.49l-0.373,-0.492l-0.372,-0.494l-0.37,-0.494l-0.369,-0.495l-0.368,-0.497l-0.366,-0.498l-0.364,-0.499l-0.364,-0.5l-0.361,-0.501l-0.361,-0.502l-0.358,-0.504l-0.358,-0.504l-0.356,-0.506l-0.354,-0.507l-0.353,-0.508l-0.351,-0.509l-0.35,-0.51l-0.349,-0.511l-0.347,-0.513l-0.345,-0.513l-0.344,-0.515l-0.343,-0.516l-0.341,-0.516l-0.339,-0.518l-0.338,-0.519l-0.337,-0.52l-0.335,-0.521l-0.333,-0.523l-0.332,-0.523l-0.331,-0.524l-0.329,-0.526l-0.327,-0.526l-0.326,-0.528l-0.324,-0.528l-0.323,-0.53l-0.321,-0.531l-0.32,-0.531l-0.318,-0.533l-0.317,-0.534l-0.315,-0.535l-0.313,-0.536l-0.312,-0.537l-0.311,-0.538l-0.309,-0.539l-0.307,-0.54l-0.306,-0.541l-0.304,-0.542l-0.302,-0.543l-0.301,-0.544l-0.299,-0.545l-0.298,-0.547l-0.296,-0.547l-0.295,-0.548l-0.293,-0.549l-0.291,-0.55l-0.29,-0.551l-0.288,-0.552l-0.287,-0.553l-0.285,-0.554l-0.283,-0.555l-0.282,-0.556l-0.28,-0.557l-0.278,-0.558l-0.277,-0.559l-0.276,-0.56l-0.273,-0.561l-0.272,-0.562l-0.27,-0.562l-0.269,-0.564l-0.267,-0.565l-0.265,-0.565l-0.264,-0.567l-0.262,-0.567l-0.261,-0.568l-0.258,-0.57l-0.257,-0.57l-0.256,-0.571l-0.253,-0.572l-0.252,-0.573l-0.251,-0.574l-0.249,-0.575l-0.247,-0.575l-0.245,-0.577l-0.243,-0.577l-0.242,-0.579l-0.241,-0.579l-0.238,-0.58l-0.237,-0.581l-0.235,-0.582l-0.233,-0.583l-0.232,-0.584l-0.23,-0.585l-0.228,-0.585l-0.227,-0.586l-0.225,-0.587l-0.223,-0.589l-0.221,-0.588l-0.22,-0.59l-0.218,-0.591l-0.216,-0.591l-0.214,-0.593l-0.213,-0.593l-0.211,-0.594l-0.209,-0.595l-0.207,-0.595l-0.206,-0.597l-0.203,-0.597l-0.203,-0.598l-0.2,-0.599l-0.198,-0.6l-0.197,-0.601l-0.195,-0.601l-0.193,-0.602l-0.192,-0.603l-0.189,-0.604l-0.188,-0.605l-0.186,-0.605l-0.184,-0.606l-0.183,-0.607l-0.18,-0.608l-0.179,-0.608l-0.177,-0.61l-0.175,-0.61l-0.174,-0.611l-0.171,-0.611l-0.17,-0.613l-0.168,-0.613l-0.166,-0.614l-0.164,-0.615l-0.162,-0.615l-0.161,-0.616l-0.159,-0.617l-0.157,-0.618l-0.155,-0.618l-0.153,-0.619l-0.151,-0.62l-0.149,-0.621l-0.148,-0.621l-0.146,-0.622l-0.144,-0.623l-0.141,-0.624l-0.141,-0.624l-0.138,-0.625l-0.136,-0.625l-0.135,-0.627l-0.132,-0.627l-0.131,-0.627l-0.129,-0.629l-0.126,-0.629l-0.125,-0.63l-0.123,-0.63l-0.122,-0.631l-0.119,-0.632l-0.117,-0.633l-0.116,-0.633l-0.113,-0.634l-0.112,-0.634l-0.109,-0.635l-0.108,-0.636l-0.106,-0.637l-0.104,-0.637l-0.102,-0.638l-0.1,-0.638l-0.098,-0.639l-0.096,-0.64l-0.094,-0.64l-0.092,-0.641l-0.09,-0.642l-0.089,-0.642l-0.086,-0.643l-0.084,-0.643l-0.083,-0.644l-0.08,-0.645l-0.079,-0.645l-0.076,-0.646l-0.075,-0.647l-0.072,-0.647l-0.07,-0.648l-0.069,-0.648l-0.067,-0.649l-0.064,-0.649l-0.063,-0.65l-0.06,-0.651l-0.059,-0.651l-0.056,-0.652l-0.055,-0.652l-0.052,-0.653l-0.05,-0.654l-0.049,-0.654l-0.046,-0.654l-0.045,-0.655l-0.042,-0.656l-0.04,-0.656l-0.038,-0.657l-0.037,-0.657l-0.034,-0.658l-0.032,-0.659l-0.03,-0.659l-0.028,-0.659l-0.026,-0.66l-0.024,-0.66l-0.022,-0.661l-0.02,-0.662l-0.017,-0.662l-0.016,-0.662l-0.014,-0.663l-0.011,-0.664l-0.009,-0.664l-0.008,-0.665l-0.005,-0.665l-0.003,-0.665l-0.001,-0.666l0.001,-0.666l0.003,-0.665l0.005,-0.665l0.008,-0.665l0.009,-0.664l0.011,-0.664l0.014,-0.663l0.016,-0.662l0.017,-0.662l0.02,-0.662l0.022,-0.661l0.024,-0.66l0.026,-0.66l0.028,-0.659l0.03,-0.659l0.032,-0.659l0.034,-0.658l0.037,-0.657l0.038,-0.657l0.04,-0.656l0.042,-0.656l0.045,-0.655l0.046,-0.654l0.049,-0.654l0.05,-0.654l0.052,-0.653l0.055,-0.652l0.056,-0.652l0.059,-0.651l0.06,-0.651l0.063,-0.65l0.064,-0.649l0.067,-0.649l0.069,-0.648l0.07,-0.648l0.072,-0.647l0.075,-0.647l0.076,-0.646l0.079,-0.645l0.08,-0.645l0.083,-0.644l0.084,-0.643l0.086,-0.643l0.089,-0.642l0.09,-0.642l0.092,-0.641l0.094,-0.64l0.096,-0.64l0.098,-0.639l0.1,-0.638l0.102,-0.638l0.104,-0.637l0.106,-0.637l0.108,-0.636l0.109,-0.635l0.112,-0.634l0.113,-0.634l0.116,-0.633l0.117,-0.633l0.119,-0.632l0.122,-0.631l0.123,-0.63l0.125,-0.63l0.126,-0.629l0.129,-0.629l0.131,-0.627l0.132,-0.627l0.135,-0.627l0.136,-0.625l0.138,-0.625l0.141,-0.624l0.141,-0.624l0.144,-0.623l0.146,-0.622l0.148,-0.621l0.149,-0.621l0.151,-0.62l0.153,-0.619l0.155,-0.618l0.157,-0.618l0.159,-0.617l0.161,-0.616l0.162,-0.615l0.164,-0.615l0.166,-0.614l0.168,-0.613l0.17,-0.613l0.171,-0.611l0.174,-0.611l0.175,-0.61l0.177,-0.61l0.179,-0.608l0.18,-0.608l0.183,-0.607l0.184,-0.606l0.186,-0.605l0.188,-0.605l0.189,-0.604l0.192,-0.603l0.193,-0.602l0.195,-0.602l0.197,-0.6l0.198,-0.6l0.2,-0.599l0.203,-0.598l0.203,-0.597l0.206,-0.597l0.207,-0.595l0.209,-0.595l0.211,-0.594l0.213,-0.593l0.214,-0.593l0.216,-0.591l0.218,-0.591l0.22,-0.59l0.221,-0.588l0.223,-0.589l0.225,-0.587l0.227,-0.586l0.228,-0.586l0.23,-0.584l0.232,-0.584l0.233,-0.583l0.235,-0.582l0.237,-0.581l0.238,-0.58l0.241,-0.579l0.242,-0.579l0.243,-0.577l0.245,-0.577l0.247,-0.575l0.249,-0.575l0.251,-0.574l0.252,-0.573l0.253,-0.572l0.256,-0.571l0.257,-0.57l0.258,-0.57l0.261,-0.568l0.262,-0.567l0.264,-0.567l0.265,-0.565l0.267,-0.565l0.269,-0.564l0.27,-0.562l0.272,-0.562l0.273,-0.561l0.276,-0.56l0.277,-0.559l0.278,-0.558l0.28,-0.557l0.282,-0.556l0.283,-0.555l0.285,-0.554l0.287,-0.553l0.288,-0.552l0.29,-0.551l0.291,-0.55l0.293,-0.549l0.295,-0.548l0.296,-0.547l0.298,-0.547l0.299,-0.545l0.301,-0.544l0.302,-0.543l0.304,-0.542l0.306,-0.541l0.307,-0.54l0.309,-0.539l0.311,-0.538l0.312,-0.537l0.313,-0.536l0.315,-0.535l0.317,-0.534l0.318,-0.533l0.32,-0.531l0.321,-0.531l0.323,-0.53l0.324,-0.528l0.326,-0.528l0.327,-0.526l0.329,-0.526l0.331,-0.524l0.332,-0.523l0.333,-0.523l0.335,-0.521l0.337,-0.52l0.338,-0.519l0.339,-0.518l0.341,-0.516l0.343,-0.516l0.344,-0.515l0.345,-0.513l0.347,-0.513l0.349,-0.511l0.35,-0.51l0.351,-0.509l0.353,-0.508l0.354,-0.507l0.356,-0.506l0.358,-0.504l0.358,-0.504l0.361,-0.502l0.361,-0.501l0.364,-0.5l0.364,-0.499l0.366,-0.498l0.368,-0.497l0.369,-0.495l0.37,-0.494l0.372,-0.494l0.373,-0.492l0.375,-0.49l0.376,-0.49l0.378,-0.489l0.379,-0.487l0.38,-0.486l0.382,-0.485l0.383,-0.484l0.385,-0.482l0.386,-0.482l0.387,-0.48l0.389,-0.479l0.39,-0.478l0.392,-0.477l0.393,-0.475l0.395,-0.474l0.395,-0.473l0.398,-0.472l0.398,-0.471l0.4,-0.469l0.401,-0.468l0.403,-0.467l0.404,-0.466l0.405,-0.464l0.407,-0.464l0.408,-0.462l0.41,-0.46l0.41,-0.46l0.413,-0.458l0.413,-0.457l0.415,-0.456l0.416,-0.454l0.418,-0.454l0.418,-0.452l0.421,-0.45l0.421,-0.45l0.423,-0.448l0.424,-0.447l0.425,-0.445l0.427,-0.445l0.428,-0.443l0.43,-0.442l0.43,-0.44l0.432,-0.439l0.433,-0.438l0.435,-0.437l0.436,-0.435l0.437,-0.434l0.438,-0.433l0.44,-0.431l0.441,-0.43l0.442,-0.429l0.444,-0.427l0.444,-0.426l0.447,-0.425l0.447,-0.423l0.448,-0.422l0.45,-0.421l0.451,-0.419l0.453,-0.418l0.453,-0.417l0.455,-0.415l0.456,-0.414l0.457,-0.413l0.459,-0.411l0.46,-0.41l0.461,-0.409l0.462,-0.407l0.463,-0.405l0.465,-0.405l0.466,-0.403l0.467,-0.401l0.468,-0.401l0.469,-0.399l0.471,-0.397l0.472,-0.396l0.473,-0.395l0.474,-0.393l0.476,-0.392l0.476,-0.39l0.478,-0.389l0.479,-0.388l0.48,-0.386l0.482,-0.385l0.482,-0.383l0.484,-0.382l0.485,-0.381l0.486,-0.379l0.487,-0.378l0.488,-0.376l0.49,-0.374l0.491,-0.374l0.491,-0.372l0.493,-0.37l0.494,-0.369l0.495,-0.367l0.497,-0.366l0.497,-0.365l0.499,-0.363l0.5,-0.362l0.5,-0.36l0.502,-0.359l0.503,-0.357l0.505,-0.355l0.505,-0.355l0.506,-0.352l0.508,-0.352l0.508,-0.349l0.51,-0.349l0.511,-0.346l0.512,-0.345l0.513,-0.344l0.514,-0.342l0.515,-0.341l0.516,-0.339l0.517,-0.338l0.519,-0.336l0.519,-0.335l0.521,-0.333l0.521,-0.331l0.523,-0.33l0.524,-0.328l0.524,-0.327l0.526,-0.326l0.527,-0.324l0.528,-0.322l0.529,-0.32l0.529,-0.32l0.531,-0.317l0.532,-0.316l0.533,-0.314l0.535,-0.313l0.535,-0.312l0.536,-0.309l0.537,-0.308l0.538,-0.307l0.539,-0.305l0.54,-0.303l0.541,-0.302l0.542,-0.3l0.543,-0.299l0.545,-0.296l0.545,-0.296l0.546,-0.293l0.547,-0.293l0.548,-0.29l0.549,-0.289l0.55,-0.287l0.551,-0.286l0.552,-0.284l0.553,-0.282l0.554,-0.281l0.554,-0.279l0.556,-0.277l0.557,-0.276l0.558,-0.274l0.558,-0.272l0.56,-0.271l0.56,-0.269l0.562,-0.268l0.562,-0.266l0.563,-0.264l0.565,-0.262l0.565,-0.261l0.566,-0.259l0.567,-0.258l0.568,-0.255l0.569,-0.255l0.569,-0.252l0.571,-0.251l0.572,-0.249l0.572,-0.247l0.573,-0.245l0.574,-0.244l0.576,-0.242l0.576,-0.241l0.576,-0.239l0.578,-0.237l0.579,-0.235l0.579,-0.233l0.581,-0.232l0.581,-0.23l0.582,-0.229l0.583,-0.226l0.584,-0.225l0.584,-0.223l0.586,-0.222l0.586,-0.219l0.588,-0.218l0.588,-0.216l0.588,-0.214l0.59,-0.213l0.591,-0.211l0.591,-0.209l0.592,-0.207l0.593,-0.206l0.594,-0.203l0.595,-0.202l0.595,-0.2l0.597,-0.199l0.597,-0.196l0.598,-0.195l0.598,-0.193l0.6,-0.191l0.6,-0.189l0.601,-0.188l0.602,-0.186l0.603,-0.184l0.603,-0.182l0.604,-0.18l0.605,-0.178l0.606,-0.177l0.606,-0.175l0.608,-0.173l0.608,-0.171l0.608,-0.169l0.61,-0.167l0.61,-0.166l0.611,-0.164l0.612,-0.161l0.613,-0.16l0.613,-0.159l0.614,-0.156l0.615,-0.154l0.615,-0.153l0.616,-0.15l0.617,-0.149l0.618,-0.147l0.618,-0.145l0.619,-0.143l0.62,-0.141l0.62,-0.14l0.622,-0.137l0.621,-0.136l0.623,-0.133l0.623,-0.132l0.624,-0.13l0.625,-0.128l0.625,-0.126l0.626,-0.124l0.627,-0.122l0.627,-0.12l0.628,-0.119l0.629,-0.116l0.629,-0.114l0.63,-0.113l0.631,-0.11l0.631,-0.109l0.632,-0.107l0.633,-0.104l0.633,-0.103l0.634,-0.101l0.634,-0.099l0.636,-0.097l0.635,-0.095l0.637,-0.093l0.637,-0.09l0.638,-0.089l0.638,-0.087l0.639,-0.086l0.639,-0.083l0.64,-0.081l0.641,-0.079l0.641,-0.077l0.642,-0.075l0.643,-0.073l0.643,-0.071l0.644,-0.069l0.644,-0.067l0.645,-0.065l0.645,-0.063l0.646,-0.061l0.647,-0.059l0.647,-0.057l0.648,-0.055l0.648,-0.053l0.649,-0.051l0.649,-0.049l0.65,-0.046l0.651,-0.045l0.651,-0.043l0.651,-0.04l0.652,-0.039l0.653,-0.036l0.653,-0.035l0.654,-0.032l0.654,-0.031l0.655,-0.028l0.655,-0.026l0.656,-0.024l0.656,-0.022l0.657,-0.02l0.658,-0.018l0.657,-0.016l0.659,-0.013l0.659,-0.012l0.659,-0.01l0.66,-0.007l0.66,-0.005l0.661,-0.003l0.661,-0.001l0.661,0.001ZM207.919,11.786l-0.631,0.003l-0.63,0.005l-0.63,0.008l-0.63,0.009l-0.629,0.011l-0.628,0.013l-0.628,0.015l-0.627,0.017l-0.627,0.019l-0.627,0.021l-0.626,0.023l-0.625,0.025l-0.625,0.027l-0.624,0.029l-0.624,0.031l-0.623,0.032l-0.623,0.035l-0.622,0.037l-0.622,0.039l-0.621,0.041l-0.621,0.042l-0.62,0.045l-0.62,0.047l-0.619,0.048l-0.618,0.051l-0.618,0.052l-0.618,0.054l-0.617,0.057l-0.616,0.058l-0.616,0.06l-0.615,0.062l-0.614,0.064l-0.615,0.066l-0.613,0.068l-0.613,0.069l-0.612,0.072l-0.612,0.073l-0.611,0.076l-0.611,0.077l-0.61,0.079l-0.609,0.081l-0.609,0.083l-0.608,0.085l-0.608,0.087l-0.607,0.089l-0.606,0.09l-0.606,0.093l-0.605,0.094l-0.605,0.096l-0.604,0.098l-0.603,0.1l-0.603,0.102l-0.602,0.103l-0.601,0.106l-0.601,0.107l-0.6,0.109l-0.6,0.111l-0.599,0.113l-0.598,0.115l-0.597,0.116l-0.597,0.118l-0.597,0.12l-0.595,0.122l-0.595,0.124l-0.595,0.126l-0.593,0.127l-0.593,0.13l-0.593,0.131l-0.591,0.132l-0.591,0.135l-0.591,0.137l-0.589,0.138l-0.589,0.14l-0.589,0.142l-0.587,0.144l-0.587,0.145l-0.586,0.147l-0.586,0.149l-0.584,0.151l-0.585,0.153l-0.583,0.154l-0.583,0.156l-0.582,0.158l-0.581,0.159l-0.58,0.162l-0.58,0.163l-0.579,0.165l-0.578,0.166l-0.578,0.169l-0.577,0.17l-0.576,0.172l-0.575,0.174l-0.575,0.175l-0.574,0.177l-0.573,0.179l-0.573,0.18l-0.571,0.183l-0.571,0.184l-0.57,0.185l-0.57,0.188l-0.568,0.189l-0.568,0.191l-0.567,0.192l-0.566,0.194l-0.566,0.196l-0.565,0.198l-0.564,0.199l-0.563,0.201l-0.562,0.203l-0.562,0.205l-0.561,0.206l-0.56,0.207l-0.559,0.21l-0.558,0.211l-0.558,0.213l-0.556,0.214l-0.556,0.216l-0.556,0.218l-0.554,0.219l-0.553,0.222l-0.553,0.222l-0.552,0.225l-0.551,0.226l-0.55,0.227l-0.549,0.23l-0.549,0.231l-0.547,0.232l-0.547,0.234l-0.546,0.236l-0.545,0.238l-0.545,0.239l-0.543,0.24l-0.542,0.243l-0.542,0.244l-0.541,0.245l-0.54,0.247l-0.539,0.249l-0.538,0.251l-0.537,0.251l-0.537,0.254l-0.535,0.255l-0.535,0.257l-0.534,0.258l-0.533,0.26l-0.532,0.262l-0.531,0.263l-0.53,0.264l-0.529,0.266l-0.528,0.268l-0.528,0.27l-0.526,0.27l-0.526,0.273l-0.525,0.274l-0.523,0.275l-0.523,0.278l-0.522,0.278l-0.521,0.28l-0.52,0.282l-0.519,0.283l-0.518,0.285l-0.518,0.287l-0.516,0.287l-0.515,0.29l-0.514,0.291l-0.514,0.292l-0.512,0.294l-0.512,0.296l-0.51,0.297l-0.51,0.298l-0.508,0.3l-0.508,0.301l-0.507,0.303l-0.505,0.305l-0.505,0.306l-0.503,0.307l-0.503,0.309l-0.502,0.311l-0.501,0.312l-0.499,0.313l-0.499,0.315l-0.498,0.316l-0.496,0.318l-0.496,0.319l-0.494,0.321l-0.494,0.322l-0.493,0.324l-0.491,0.325l-0.491,0.326l-0.489,0.328l-0.489,0.33l-0.487,0.331l-0.487,0.332l-0.485,0.334l-0.484,0.335l-0.484,0.337l-0.482,0.338l-0.481,0.339l-0.48,0.341l-0.479,0.342l-0.478,0.344l-0.477,0.345l-0.476,0.347l-0.475,0.348l-0.473,0.349l-0.473,0.351l-0.472,0.352l-0.47,0.353l-0.47,0.355l-0.468,0.357l-0.467,0.357l-0.466,0.359l-0.465,0.361l-0.464,0.362l-0.463,0.363l-0.461,0.364l-0.461,0.366l-0.46,0.368l-0.458,0.368l-0.457,0.37l-0.456,0.372l-0.455,0.372l-0.454,0.374l-0.453,0.376l-0.451,0.376l-0.451,0.379l-0.449,0.379l-0.448,0.381l-0.447,0.382l-0.446,0.383l-0.445,0.385l-0.443,0.386l-0.443,0.387l-0.441,0.389l-0.44,0.39l-0.439,0.391l-0.437,0.393l-0.437,0.394l-0.435,0.395l-0.435,0.396l-0.433,0.398l-0.431,0.399l-0.431,0.4l-0.429,0.402l-0.429,0.403l-0.427,0.404l-0.425,0.406l-0.425,0.406l-0.423,0.408l-0.423,0.41l-0.421,0.41l-0.419,0.412l-0.419,0.413l-0.417,0.414l-0.416,0.416l-0.415,0.417l-0.414,0.418l-0.412,0.419l-0.411,0.421l-0.41,0.421l-0.409,0.423l-0.407,0.424l-0.407,0.426l-0.404,0.427l-0.404,0.427l-0.403,0.43l-0.401,0.43l-0.4,0.431l-0.398,0.433l-0.397,0.434l-0.397,0.435l-0.394,0.436l-0.394,0.438l-0.392,0.439l-0.391,0.44l-0.39,0.441l-0.388,0.442l-0.387,0.443l-0.386,0.445l-0.384,0.446l-0.383,0.447l-0.382,0.448l-0.381,0.449l-0.379,0.451l-0.378,0.451l-0.376,0.453l-0.375,0.454l-0.374,0.455l-0.373,0.456l-0.371,0.458l-0.37,0.458l-0.369,0.46l-0.367,0.461l-0.366,0.462l-0.364,0.463l-0.364,0.464l-0.361,0.465l-0.361,0.466l-0.359,0.468l-0.358,0.469l-0.356,0.469l-0.355,0.471l-0.354,0.472l-0.352,0.473l-0.351,0.474l-0.349,0.475l-0.349,0.477l-0.346,0.477l-0.346,0.479l-0.344,0.479l-0.342,0.481l-0.341,0.482l-0.34,0.483l-0.338,0.483l-0.337,0.485l-0.336,0.486l-0.334,0.487l-0.333,0.489l-0.331,0.489l-0.33,0.49l-0.328,0.491l-0.327,0.493l-0.326,0.493l-0.324,0.494l-0.323,0.496l-0.321,0.496l-0.32,0.498l-0.318,0.498l-0.317,0.5l-0.316,0.5l-0.314,0.502l-0.312,0.503l-0.311,0.503l-0.31,0.505l-0.308,0.506l-0.307,0.506l-0.305,0.508l-0.304,0.508l-0.302,0.51l-0.301,0.511l-0.299,0.511l-0.298,0.513l-0.296,0.513l-0.295,0.515l-0.293,0.516l-0.292,0.516l-0.29,0.518l-0.289,0.518l-0.287,0.519l-0.286,0.521l-0.284,0.521l-0.283,0.522l-0.281,0.524l-0.28,0.524l-0.278,0.525l-0.277,0.526l-0.275,0.527l-0.273,0.528l-0.272,0.529l-0.271,0.529l-0.269,0.531l-0.267,0.532l-0.266,0.532l-0.264,0.534l-0.263,0.534l-0.261,0.536l-0.259,0.536l-0.258,0.537l-0.257,0.538l-0.255,0.539l-0.253,0.54l-0.252,0.54l-0.25,0.542l-0.248,0.542l-0.247,0.544l-0.246,0.544l-0.243,0.545l-0.243,0.546l-0.24,0.547l-0.239,0.548l-0.237,0.548l-0.236,0.55l-0.234,0.55l-0.233,0.552l-0.231,0.552l-0.229,0.552l-0.228,0.554l-0.226,0.555l-0.224,0.555l-0.223,0.557l-0.221,0.557l-0.22,0.558l-0.217,0.558l-0.217,0.56l-0.214,0.56l-0.213,0.562l-0.211,0.562l-0.21,0.563l-0.208,0.563l-0.206,0.565l-0.205,0.565l-0.203,0.566l-0.201,0.567l-0.2,0.568l-0.197,0.568l-0.197,0.57l-0.194,0.57l-0.193,0.571l-0.191,0.571l-0.19,0.573l-0.187,0.573l-0.187,0.574l-0.184,0.575l-0.183,0.575l-0.181,0.577l-0.179,0.577l-0.177,0.577l-0.176,0.579l-0.174,0.579l-0.173,0.58l-0.17,0.581l-0.169,0.582l-0.167,0.582l-0.166,0.583l-0.164,0.584l-0.162,0.584l-0.16,0.586l-0.158,0.586l-0.157,0.586l-0.155,0.588l-0.153,0.588l-0.152,0.589l-0.149,0.589l-0.148,0.59l-0.147,0.591l-0.144,0.592l-0.143,0.592l-0.14,0.593l-0.14,0.594l-0.137,0.595l-0.135,0.595l-0.134,0.596l-0.132,0.596l-0.13,0.597l-0.128,0.598l-0.127,0.599l-0.125,0.599l-0.123,0.6l-0.121,0.6l-0.119,0.601l-0.117,0.602l-0.116,0.603l-0.114,0.603l-0.112,0.604l-0.11,0.604l-0.109,0.605l-0.106,0.606l-0.105,0.606l-0.103,0.607l-0.101,0.608l-0.099,0.608l-0.097,0.609l-0.096,0.609l-0.093,0.611l-0.092,0.61l-0.09,0.612l-0.088,0.612l-0.086,0.612l-0.084,0.613l-0.083,0.614l-0.08,0.615l-0.079,0.615l-0.077,0.615l-0.074,0.616l-0.073,0.617l-0.072,0.617l-0.069,0.618l-0.067,0.619l-0.066,0.619l-0.063,0.62l-0.062,0.62l-0.059,0.621l-0.058,0.621l-0.056,0.622l-0.054,0.622l-0.052,0.623l-0.05,0.624l-0.048,0.624l-0.047,0.625l-0.044,0.625l-0.042,0.626l-0.041,0.626l-0.038,0.627l-0.037,0.627l-0.034,0.628l-0.033,0.629l-0.031,0.629l-0.028,0.629l-0.027,0.63l-0.025,0.631l-0.023,0.631l-0.021,0.631l-0.019,0.632l-0.016,0.633l-0.015,0.633l-0.013,0.633l-0.011,0.634l-0.009,0.635l-0.007,0.635l-0.005,0.636l-0.003,0.636l-0.001,0.636l0.001,0.636l0.003,0.636l0.005,0.636l0.007,0.635l0.009,0.635l0.011,0.634l0.013,0.633l0.015,0.633l0.016,0.633l0.019,0.632l0.021,0.631l0.023,0.631l0.025,0.631l0.027,0.63l0.028,0.629l0.031,0.629l0.033,0.629l0.034,0.628l0.037,0.627l0.038,0.627l0.041,0.626l0.042,0.626l0.044,0.625l0.047,0.625l0.048,0.624l0.05,0.624l0.052,0.623l0.054,0.622l0.056,0.622l0.058,0.621l0.059,0.621l0.062,0.62l0.063,0.62l0.066,0.619l0.067,0.619l0.069,0.618l0.072,0.617l0.073,0.617l0.074,0.616l0.077,0.615l0.079,0.615l0.08,0.615l0.083,0.614l0.084,0.613l0.086,0.612l0.088,0.612l0.09,0.612l0.092,0.61l0.093,0.611l0.096,0.609l0.097,0.609l0.099,0.608l0.101,0.608l0.103,0.607l0.105,0.606l0.106,0.606l0.109,0.605l0.11,0.604l0.112,0.604l0.114,0.603l0.116,0.603l0.117,0.602l0.119,0.601l0.121,0.6l0.123,0.6l0.125,0.599l0.127,0.599l0.128,0.598l0.13,0.597l0.132,0.596l0.134,0.596l0.135,0.595l0.137,0.595l0.14,0.594l0.14,0.593l0.143,0.592l0.144,0.592l0.147,0.591l0.148,0.59l0.149,0.589l0.152,0.589l0.153,0.588l0.155,0.588l0.157,0.586l0.158,0.586l0.16,0.586l0.162,0.584l0.164,0.584l0.166,0.583l0.167,0.582l0.169,0.582l0.17,0.581l0.173,0.58l0.174,0.579l0.176,0.579l0.177,0.577l0.179,0.577l0.181,0.577l0.183,0.575l0.184,0.575l0.187,0.574l0.187,0.573l0.19,0.573l0.191,0.571l0.193,0.571l0.194,0.57l0.197,0.57l0.197,0.568l0.2,0.568l0.201,0.567l0.203,0.566l0.205,0.565l0.206,0.565l0.208,0.563l0.21,0.563l0.211,0.562l0.213,0.562l0.214,0.56l0.217,0.56l0.217,0.558l0.22,0.558l0.221,0.557l0.223,0.557l0.224,0.555l0.226,0.555l0.228,0.554l0.229,0.552l0.231,0.552l0.233,0.552l0.234,0.55l0.236,0.55l0.237,0.548l0.239,0.548l0.24,0.547l0.243,0.546l0.243,0.545l0.246,0.544l0.247,0.544l0.248,0.542l0.25,0.542l0.252,0.54l0.253,0.54l0.255,0.539l0.257,0.538l0.258,0.537l0.259,0.536l0.261,0.536l0.263,0.534l0.264,0.534l0.266,0.532l0.267,0.532l0.269,0.531l0.271,0.529l0.272,0.529l0.273,0.528l0.275,0.527l0.277,0.526l0.278,0.525l0.28,0.524l0.281,0.524l0.283,0.522l0.284,0.521l0.286,0.521l0.287,0.519l0.289,0.518l0.29,0.518l0.292,0.516l0.293,0.516l0.295,0.515l0.296,0.513l0.298,0.513l0.299,0.511l0.301,0.511l0.302,0.51l0.304,0.508l0.305,0.508l0.307,0.506l0.308,0.506l0.31,0.505l0.311,0.503l0.312,0.503l0.314,0.502l0.316,0.5l0.317,0.5l0.318,0.498l0.32,0.498l0.321,0.496l0.323,0.496l0.324,0.494l0.326,0.493l0.327,0.493l0.328,0.491l0.33,0.49l0.331,0.489l0.333,0.489l0.334,0.487l0.336,0.486l0.337,0.485l0.338,0.483l0.34,0.483l0.341,0.482l0.342,0.481l0.344,0.479l0.346,0.479l0.346,0.477l0.349,0.477l0.349,0.475l0.351,0.474l0.352,0.473l0.354,0.472l0.355,0.471l0.356,0.469l0.358,0.469l0.359,0.468l0.361,0.466l0.361,0.465l0.364,0.464l0.364,0.464l0.366,0.461l0.367,0.461l0.369,0.46l0.37,0.458l0.371,0.458l0.373,0.456l0.374,0.455l0.375,0.454l0.376,0.453l0.378,0.451l0.379,0.451l0.381,0.449l0.382,0.448l0.383,0.447l0.384,0.446l0.386,0.445l0.387,0.443l0.388,0.442l0.39,0.441l0.391,0.44l0.392,0.439l0.394,0.438l0.394,0.436l0.397,0.435l0.397,0.434l0.398,0.433l0.4,0.431l0.401,0.43l0.403,0.43l0.404,0.427l0.404,0.427l0.407,0.426l0.407,0.424l0.409,0.423l0.41,0.421l0.411,0.421l0.412,0.419l0.414,0.418l0.415,0.417l0.416,0.416l0.417,0.414l0.419,0.413l0.419,0.412l0.421,0.41l0.423,0.41l0.423,0.408l0.425,0.406l0.425,0.406l0.427,0.404l0.429,0.403l0.429,0.402l0.431,0.4l0.431,0.399l0.433,0.398l0.435,0.396l0.435,0.395l0.436,0.394l0.438,0.393l0.439,0.391l0.44,0.39l0.441,0.389l0.443,0.387l0.443,0.386l0.445,0.385l0.446,0.383l0.447,0.382l0.448,0.381l0.449,0.379l0.451,0.379l0.451,0.376l0.453,0.376l0.454,0.374l0.455,0.372l0.456,0.372l0.457,0.37l0.458,0.368l0.46,0.368l0.46,0.366l0.462,0.364l0.463,0.363l0.464,0.362l0.465,0.361l0.466,0.359l0.467,0.357l0.468,0.357l0.47,0.355l0.47,0.353l0.472,0.352l0.473,0.351l0.473,0.349l0.475,0.348l0.476,0.347l0.477,0.345l0.478,0.344l0.479,0.342l0.48,0.341l0.481,0.339l0.482,0.338l0.484,0.337l0.484,0.335l0.485,0.334l0.487,0.332l0.487,0.331l0.489,0.329l0.489,0.329l0.491,0.326l0.491,0.325l0.493,0.324l0.494,0.322l0.494,0.321l0.496,0.319l0.497,0.318l0.497,0.316l0.499,0.315l0.5,0.313l0.5,0.312l0.502,0.311l0.502,0.309l0.504,0.307l0.505,0.306l0.505,0.305l0.507,0.303l0.508,0.301l0.508,0.3l0.51,0.299l0.51,0.296l0.512,0.296l0.512,0.294l0.513,0.292l0.515,0.291l0.515,0.29l0.516,0.288l0.518,0.286l0.518,0.285l0.519,0.283l0.52,0.282l0.521,0.28l0.522,0.278l0.523,0.278l0.523,0.275l0.525,0.274l0.526,0.273l0.526,0.27l0.528,0.27l0.528,0.268l0.529,0.266l0.53,0.264l0.531,0.263l0.532,0.262l0.533,0.26l0.534,0.258l0.535,0.257l0.535,0.255l0.537,0.254l0.537,0.251l0.538,0.251l0.539,0.249l0.54,0.247l0.541,0.245l0.542,0.244l0.542,0.242l0.543,0.241l0.545,0.239l0.545,0.238l0.546,0.236l0.547,0.234l0.547,0.232l0.549,0.231l0.549,0.23l0.55,0.227l0.551,0.226l0.552,0.225l0.553,0.222l0.553,0.222l0.554,0.219l0.556,0.218l0.556,0.216l0.556,0.214l0.558,0.213l0.558,0.211l0.56,0.21l0.559,0.207l0.561,0.206l0.562,0.205l0.562,0.203l0.563,0.201l0.564,0.199l0.565,0.198l0.566,0.196l0.566,0.194l0.567,0.192l0.568,0.191l0.568,0.189l0.57,0.188l0.57,0.185l0.571,0.184l0.571,0.183l0.573,0.18l0.573,0.179l0.574,0.177l0.575,0.175l0.575,0.174l0.576,0.172l0.577,0.17l0.578,0.169l0.578,0.166l0.579,0.165l0.58,0.163l0.58,0.162l0.582,0.159l0.581,0.158l0.583,0.156l0.584,0.155l0.584,0.152l0.584,0.151l0.586,0.149l0.586,0.147l0.587,0.146l0.587,0.143l0.589,0.142l0.589,0.14l0.589,0.138l0.591,0.137l0.591,0.134l0.591,0.133l0.593,0.131l0.593,0.13l0.593,0.127l0.595,0.126l0.595,0.124l0.595,0.122l0.597,0.12l0.597,0.118l0.597,0.116l0.598,0.115l0.599,0.113l0.6,0.111l0.6,0.109l0.601,0.107l0.601,0.106l0.602,0.103l0.603,0.102l0.603,0.1l0.604,0.098l0.605,0.096l0.605,0.094l0.606,0.093l0.606,0.09l0.607,0.089l0.608,0.087l0.608,0.085l0.609,0.083l0.609,0.081l0.61,0.079l0.611,0.077l0.611,0.076l0.612,0.073l0.612,0.072l0.613,0.069l0.613,0.068l0.615,0.066l0.614,0.064l0.615,0.062l0.616,0.06l0.616,0.058l0.617,0.057l0.618,0.054l0.618,0.052l0.618,0.051l0.619,0.048l0.62,0.047l0.62,0.045l0.621,0.042l0.621,0.041l0.622,0.039l0.622,0.037l0.623,0.035l0.623,0.032l0.624,0.031l0.624,0.029l0.625,0.027l0.626,0.025l0.625,0.023l0.627,0.021l0.627,0.019l0.627,0.017l0.628,0.015l0.628,0.013l0.629,0.011l0.63,0.009l0.629,0.008l0.631,0.005l0.631,0.003l0.631,0.001l0.631,-0.001l0.631,-0.003l0.631,-0.005l0.629,-0.008l0.63,-0.009l0.629,-0.011l0.628,-0.013l0.628,-0.015l0.627,-0.017l0.627,-0.019l0.627,-0.021l0.625,-0.023l0.626,-0.025l0.625,-0.027l0.624,-0.029l0.624,-0.031l0.623,-0.032l0.623,-0.035l0.622,-0.037l0.622,-0.039l0.621,-0.041l0.621,-0.042l0.62,-0.045l0.62,-0.047l0.619,-0.048l0.618,-0.051l0.618,-0.052l0.618,-0.054l0.617,-0.057l0.616,-0.058l0.616,-0.06l0.615,-0.062l0.614,-0.064l0.615,-0.066l0.613,-0.068l0.613,-0.069l0.612,-0.072l0.612,-0.073l0.611,-0.076l0.611,-0.077l0.61,-0.079l0.609,-0.081l0.609,-0.083l0.608,-0.085l0.608,-0.087l0.607,-0.089l0.606,-0.09l0.606,-0.093l0.605,-0.094l0.605,-0.096l0.604,-0.098l0.603,-0.1l0.603,-0.102l0.602,-0.103l0.601,-0.106l0.601,-0.107l0.6,-0.109l0.6,-0.111l0.599,-0.113l0.598,-0.115l0.597,-0.116l0.597,-0.118l0.597,-0.12l0.595,-0.122l0.595,-0.124l0.595,-0.126l0.593,-0.127l0.593,-0.13l0.593,-0.131l0.591,-0.133l0.591,-0.134l0.591,-0.137l0.589,-0.138l0.589,-0.14l0.589,-0.142l0.587,-0.143l0.587,-0.146l0.586,-0.147l0.586,-0.149l0.584,-0.151l0.584,-0.152l0.584,-0.155l0.583,-0.156l0.581,-0.158l0.582,-0.159l0.58,-0.162l0.58,-0.163l0.579,-0.165l0.578,-0.166l0.578,-0.169l0.577,-0.17l0.576,-0.172l0.575,-0.174l0.575,-0.175l0.574,-0.177l0.573,-0.179l0.573,-0.18l0.571,-0.183l0.571,-0.184l0.57,-0.185l0.57,-0.188l0.568,-0.189l0.568,-0.191l0.567,-0.192l0.566,-0.194l0.566,-0.196l0.565,-0.198l0.564,-0.199l0.563,-0.201l0.562,-0.203l0.562,-0.205l0.561,-0.206l0.559,-0.207l0.56,-0.21l0.558,-0.211l0.558,-0.213l0.556,-0.214l0.556,-0.216l0.556,-0.218l0.554,-0.219l0.553,-0.222l0.553,-0.222l0.552,-0.225l0.551,-0.226l0.55,-0.227l0.549,-0.23l0.549,-0.231l0.547,-0.232l0.547,-0.234l0.546,-0.236l0.545,-0.238l0.545,-0.239l0.543,-0.24l0.542,-0.243l0.542,-0.244l0.541,-0.245l0.54,-0.247l0.539,-0.249l0.538,-0.251l0.537,-0.251l0.537,-0.254l0.535,-0.255l0.535,-0.257l0.534,-0.258l0.533,-0.26l0.532,-0.262l0.531,-0.263l0.53,-0.264l0.529,-0.266l0.528,-0.268l0.528,-0.27l0.526,-0.27l0.526,-0.273l0.525,-0.274l0.523,-0.275l0.523,-0.278l0.522,-0.278l0.521,-0.28l0.52,-0.282l0.519,-0.283l0.518,-0.285l0.518,-0.286l0.516,-0.288l0.515,-0.29l0.515,-0.291l0.513,-0.292l0.512,-0.294l0.512,-0.296l0.51,-0.296l0.51,-0.299l0.508,-0.3l0.508,-0.301l0.507,-0.303l0.505,-0.305l0.505,-0.306l0.504,-0.307l0.502,-0.309l0.502,-0.311l0.5,-0.312l0.5,-0.313l0.499,-0.315l0.498,-0.316l0.496,-0.318l0.496,-0.319l0.494,-0.321l0.494,-0.322l0.493,-0.324l0.491,-0.325l0.491,-0.326l0.489,-0.329l0.489,-0.329l0.487,-0.331l0.487,-0.332l0.485,-0.334l0.484,-0.335l0.484,-0.337l0.482,-0.338l0.481,-0.339l0.48,-0.341l0.479,-0.342l0.478,-0.344l0.477,-0.345l0.476,-0.347l0.475,-0.348l0.473,-0.349l0.473,-0.351l0.472,-0.352l0.47,-0.353l0.47,-0.355l0.468,-0.357l0.467,-0.357l0.466,-0.359l0.465,-0.361l0.464,-0.362l0.463,-0.363l0.461,-0.364l0.461,-0.366l0.46,-0.368l0.458,-0.368l0.457,-0.37l0.456,-0.372l0.455,-0.372l0.454,-0.374l0.453,-0.376l0.451,-0.376l0.451,-0.379l0.449,-0.379l0.448,-0.381l0.447,-0.382l0.446,-0.383l0.445,-0.385l0.443,-0.386l0.443,-0.387l0.441,-0.389l0.44,-0.39l0.439,-0.391l0.438,-0.393l0.436,-0.394l0.435,-0.395l0.435,-0.396l0.433,-0.398l0.431,-0.399l0.431,-0.4l0.429,-0.402l0.429,-0.403l0.427,-0.404l0.425,-0.406l0.425,-0.406l0.424,-0.408l0.422,-0.41l0.421,-0.41l0.419,-0.412l0.419,-0.413l0.417,-0.414l0.416,-0.416l0.415,-0.417l0.414,-0.418l0.412,-0.419l0.411,-0.421l0.41,-0.421l0.409,-0.423l0.407,-0.425l0.407,-0.425l0.404,-0.427l0.404,-0.427l0.403,-0.43l0.401,-0.43l0.4,-0.431l0.398,-0.433l0.397,-0.434l0.397,-0.435l0.394,-0.436l0.394,-0.438l0.392,-0.439l0.391,-0.44l0.39,-0.441l0.388,-0.442l0.387,-0.443l0.386,-0.445l0.384,-0.446l0.383,-0.447l0.382,-0.448l0.381,-0.449l0.379,-0.451l0.378,-0.451l0.376,-0.453l0.376,-0.454l0.373,-0.455l0.373,-0.456l0.371,-0.458l0.37,-0.458l0.369,-0.46l0.367,-0.461l0.366,-0.461l0.364,-0.464l0.363,-0.464l0.362,-0.465l0.361,-0.466l0.359,-0.468l0.358,-0.469l0.356,-0.469l0.355,-0.471l0.354,-0.472l0.352,-0.473l0.351,-0.474l0.349,-0.476l0.349,-0.476l0.346,-0.477l0.346,-0.479l0.344,-0.479l0.342,-0.481l0.341,-0.482l0.34,-0.483l0.339,-0.483l0.336,-0.485l0.336,-0.486l0.334,-0.487l0.333,-0.488l0.331,-0.49l0.33,-0.49l0.328,-0.491l0.327,-0.493l0.326,-0.493l0.324,-0.494l0.323,-0.496l0.321,-0.496l0.32,-0.498l0.318,-0.498l0.317,-0.5l0.316,-0.5l0.314,-0.502l0.312,-0.503l0.311,-0.503l0.31,-0.505l0.308,-0.506l0.307,-0.506l0.305,-0.508l0.304,-0.508l0.302,-0.51l0.301,-0.511l0.299,-0.511l0.298,-0.513l0.296,-0.513l0.295,-0.515l0.293,-0.516l0.292,-0.516l0.29,-0.518l0.289,-0.518l0.287,-0.519l0.286,-0.521l0.284,-0.521l0.283,-0.522l0.281,-0.524l0.28,-0.524l0.278,-0.525l0.277,-0.526l0.275,-0.527l0.273,-0.528l0.272,-0.529l0.271,-0.529l0.269,-0.531l0.267,-0.532l0.266,-0.532l0.264,-0.534l0.263,-0.534l0.261,-0.536l0.259,-0.536l0.258,-0.537l0.257,-0.538l0.255,-0.539l0.253,-0.54l0.252,-0.54l0.25,-0.542l0.248,-0.543l0.247,-0.543l0.246,-0.544l0.243,-0.545l0.243,-0.546l0.24,-0.547l0.239,-0.548l0.237,-0.548l0.236,-0.55l0.234,-0.55l0.233,-0.552l0.231,-0.552l0.229,-0.552l0.228,-0.554l0.226,-0.555l0.224,-0.555l0.223,-0.557l0.221,-0.557l0.22,-0.558l0.217,-0.558l0.217,-0.56l0.214,-0.56l0.213,-0.562l0.211,-0.562l0.21,-0.563l0.208,-0.563l0.206,-0.565l0.205,-0.565l0.203,-0.566l0.201,-0.567l0.2,-0.568l0.197,-0.568l0.197,-0.57l0.194,-0.57l0.193,-0.571l0.191,-0.571l0.19,-0.573l0.187,-0.573l0.187,-0.574l0.184,-0.575l0.183,-0.575l0.181,-0.577l0.179,-0.577l0.177,-0.577l0.176,-0.579l0.174,-0.579l0.173,-0.58l0.17,-0.581l0.169,-0.582l0.167,-0.582l0.166,-0.583l0.164,-0.584l0.162,-0.584l0.16,-0.586l0.158,-0.586l0.157,-0.586l0.155,-0.588l0.153,-0.588l0.152,-0.589l0.149,-0.589l0.148,-0.59l0.147,-0.591l0.144,-0.592l0.143,-0.592l0.14,-0.593l0.139,-0.594l0.138,-0.595l0.135,-0.595l0.134,-0.596l0.132,-0.596l0.13,-0.597l0.128,-0.598l0.127,-0.599l0.125,-0.599l0.123,-0.6l0.121,-0.6l0.119,-0.601l0.117,-0.602l0.116,-0.603l0.114,-0.603l0.112,-0.604l0.11,-0.604l0.109,-0.605l0.106,-0.606l0.105,-0.606l0.103,-0.607l0.101,-0.608l0.099,-0.608l0.097,-0.609l0.096,-0.609l0.093,-0.611l0.092,-0.61l0.09,-0.612l0.088,-0.612l0.086,-0.612l0.084,-0.613l0.083,-0.614l0.08,-0.615l0.079,-0.615l0.077,-0.615l0.074,-0.616l0.073,-0.617l0.072,-0.617l0.069,-0.618l0.067,-0.619l0.066,-0.619l0.063,-0.62l0.062,-0.62l0.059,-0.621l0.058,-0.621l0.056,-0.622l0.054,-0.622l0.052,-0.623l0.05,-0.624l0.048,-0.624l0.047,-0.625l0.044,-0.625l0.042,-0.626l0.041,-0.626l0.038,-0.627l0.037,-0.627l0.034,-0.628l0.033,-0.629l0.031,-0.629l0.028,-0.629l0.027,-0.63l0.025,-0.631l0.023,-0.631l0.021,-0.631l0.019,-0.632l0.017,-0.633l0.014,-0.633l0.013,-0.633l0.011,-0.634l0.009,-0.635l0.007,-0.635l0.005,-0.635l0.003,-0.637l0.001,-0.636l-0.001,-0.636l-0.003,-0.637l-0.005,-0.635l-0.007,-0.635l-0.009,-0.635l-0.011,-0.634l-0.013,-0.633l-0.014,-0.633l-0.017,-0.633l-0.019,-0.632l-0.021,-0.631l-0.023,-0.631l-0.025,-0.631l-0.027,-0.63l-0.028,-0.629l-0.031,-0.629l-0.033,-0.629l-0.034,-0.628l-0.037,-0.627l-0.038,-0.627l-0.041,-0.626l-0.042,-0.626l-0.044,-0.625l-0.047,-0.625l-0.048,-0.624l-0.05,-0.624l-0.052,-0.623l-0.054,-0.622l-0.056,-0.622l-0.058,-0.621l-0.059,-0.621l-0.062,-0.62l-0.063,-0.62l-0.066,-0.619l-0.067,-0.619l-0.069,-0.618l-0.072,-0.617l-0.073,-0.617l-0.074,-0.616l-0.077,-0.615l-0.079,-0.615l-0.08,-0.615l-0.083,-0.614l-0.084,-0.613l-0.086,-0.612l-0.088,-0.612l-0.09,-0.612l-0.092,-0.61l-0.093,-0.611l-0.096,-0.609l-0.097,-0.609l-0.099,-0.608l-0.101,-0.608l-0.103,-0.607l-0.105,-0.606l-0.106,-0.606l-0.109,-0.605l-0.11,-0.605l-0.112,-0.603l-0.114,-0.603l-0.116,-0.603l-0.117,-0.602l-0.119,-0.601l-0.121,-0.6l-0.123,-0.6l-0.125,-0.599l-0.127,-0.599l-0.128,-0.598l-0.13,-0.597l-0.132,-0.596l-0.134,-0.596l-0.135,-0.595l-0.138,-0.595l-0.139,-0.594l-0.14,-0.593l-0.143,-0.592l-0.144,-0.592l-0.147,-0.591l-0.148,-0.59l-0.149,-0.589l-0.152,-0.589l-0.153,-0.588l-0.155,-0.588l-0.157,-0.586l-0.158,-0.586l-0.16,-0.586l-0.162,-0.584l-0.164,-0.584l-0.166,-0.583l-0.167,-0.582l-0.169,-0.582l-0.17,-0.581l-0.173,-0.58l-0.174,-0.579l-0.176,-0.579l-0.177,-0.577l-0.179,-0.577l-0.181,-0.577l-0.183,-0.575l-0.184,-0.575l-0.187,-0.574l-0.187,-0.573l-0.19,-0.573l-0.191,-0.571l-0.193,-0.571l-0.194,-0.57l-0.197,-0.57l-0.197,-0.568l-0.2,-0.568l-0.201,-0.567l-0.203,-0.566l-0.205,-0.565l-0.206,-0.565l-0.208,-0.563l-0.21,-0.563l-0.211,-0.562l-0.213,-0.562l-0.214,-0.56l-0.217,-0.56l-0.217,-0.558l-0.22,-0.558l-0.221,-0.557l-0.223,-0.557l-0.224,-0.555l-0.226,-0.555l-0.228,-0.554l-0.229,-0.552l-0.231,-0.552l-0.233,-0.552l-0.234,-0.55l-0.236,-0.55l-0.237,-0.548l-0.239,-0.548l-0.24,-0.547l-0.243,-0.546l-0.243,-0.545l-0.246,-0.544l-0.247,-0.544l-0.248,-0.542l-0.25,-0.542l-0.252,-0.54l-0.253,-0.54l-0.255,-0.539l-0.257,-0.538l-0.258,-0.537l-0.259,-0.536l-0.261,-0.536l-0.263,-0.534l-0.264,-0.534l-0.266,-0.532l-0.267,-0.532l-0.269,-0.531l-0.271,-0.529l-0.272,-0.529l-0.273,-0.528l-0.275,-0.527l-0.277,-0.526l-0.278,-0.525l-0.28,-0.524l-0.281,-0.524l-0.283,-0.522l-0.284,-0.521l-0.286,-0.521l-0.287,-0.519l-0.289,-0.518l-0.29,-0.518l-0.292,-0.516l-0.293,-0.516l-0.295,-0.515l-0.296,-0.513l-0.298,-0.513l-0.299,-0.511l-0.301,-0.511l-0.302,-0.51l-0.304,-0.508l-0.305,-0.508l-0.307,-0.506l-0.308,-0.506l-0.31,-0.505l-0.311,-0.503l-0.312,-0.503l-0.314,-0.502l-0.316,-0.5l-0.317,-0.5l-0.318,-0.498l-0.32,-0.498l-0.321,-0.496l-0.323,-0.496l-0.324,-0.494l-0.326,-0.493l-0.327,-0.493l-0.328,-0.491l-0.33,-0.49l-0.331,-0.489l-0.333,-0.489l-0.334,-0.487l-0.336,-0.486l-0.337,-0.485l-0.338,-0.483l-0.34,-0.483l-0.341,-0.482l-0.342,-0.481l-0.344,-0.479l-0.346,-0.479l-0.346,-0.477l-0.349,-0.477l-0.349,-0.475l-0.351,-0.474l-0.352,-0.473l-0.354,-0.472l-0.355,-0.471l-0.356,-0.469l-0.358,-0.469l-0.359,-0.468l-0.361,-0.466l-0.362,-0.465l-0.363,-0.464l-0.364,-0.463l-0.366,-0.462l-0.367,-0.461l-0.369,-0.46l-0.37,-0.458l-0.371,-0.458l-0.373,-0.456l-0.374,-0.455l-0.375,-0.454l-0.376,-0.453l-0.378,-0.451l-0.379,-0.451l-0.381,-0.449l-0.382,-0.448l-0.383,-0.447l-0.384,-0.446l-0.386,-0.445l-0.387,-0.443l-0.388,-0.442l-0.39,-0.441l-0.391,-0.44l-0.392,-0.439l-0.394,-0.438l-0.394,-0.436l-0.397,-0.435l-0.397,-0.434l-0.398,-0.433l-0.4,-0.431l-0.401,-0.43l-0.403,-0.43l-0.403,-0.427l-0.405,-0.427l-0.407,-0.425l-0.407,-0.425l-0.409,-0.423l-0.41,-0.421l-0.411,-0.421l-0.412,-0.419l-0.414,-0.418l-0.415,-0.417l-0.416,-0.416l-0.417,-0.414l-0.419,-0.413l-0.419,-0.412l-0.421,-0.41l-0.422,-0.41l-0.424,-0.408l-0.425,-0.406l-0.425,-0.406l-0.427,-0.404l-0.429,-0.403l-0.429,-0.402l-0.431,-0.4l-0.431,-0.399l-0.433,-0.398l-0.435,-0.396l-0.435,-0.395l-0.436,-0.394l-0.438,-0.393l-0.439,-0.391l-0.44,-0.39l-0.441,-0.389l-0.443,-0.387l-0.443,-0.386l-0.445,-0.385l-0.446,-0.383l-0.447,-0.382l-0.448,-0.381l-0.449,-0.379l-0.451,-0.379l-0.451,-0.376l-0.453,-0.376l-0.454,-0.374l-0.455,-0.372l-0.456,-0.372l-0.457,-0.37l-0.458,-0.368l-0.46,-0.368l-0.461,-0.366l-0.461,-0.364l-0.463,-0.363l-0.464,-0.362l-0.465,-0.361l-0.466,-0.359l-0.467,-0.357l-0.468,-0.357l-0.47,-0.355l-0.47,-0.353l-0.472,-0.352l-0.473,-0.351l-0.473,-0.349l-0.475,-0.348l-0.476,-0.347l-0.477,-0.345l-0.478,-0.344l-0.479,-0.342l-0.48,-0.341l-0.481,-0.339l-0.482,-0.338l-0.484,-0.337l-0.484,-0.335l-0.485,-0.334l-0.487,-0.332l-0.487,-0.331l-0.489,-0.33l-0.489,-0.328l-0.491,-0.326l-0.491,-0.325l-0.493,-0.324l-0.494,-0.322l-0.494,-0.321l-0.496,-0.319l-0.496,-0.318l-0.498,-0.316l-0.499,-0.315l-0.5,-0.313l-0.5,-0.312l-0.502,-0.311l-0.503,-0.309l-0.503,-0.307l-0.505,-0.306l-0.505,-0.305l-0.507,-0.303l-0.508,-0.301l-0.508,-0.3l-0.51,-0.298l-0.51,-0.297l-0.512,-0.296l-0.512,-0.294l-0.514,-0.292l-0.514,-0.291l-0.515,-0.29l-0.516,-0.287l-0.518,-0.287l-0.518,-0.285l-0.519,-0.283l-0.52,-0.282l-0.521,-0.28l-0.522,-0.278l-0.523,-0.278l-0.523,-0.275l-0.525,-0.274l-0.526,-0.273l-0.526,-0.27l-0.528,-0.27l-0.528,-0.268l-0.529,-0.266l-0.53,-0.264l-0.531,-0.263l-0.532,-0.262l-0.533,-0.26l-0.534,-0.258l-0.535,-0.257l-0.535,-0.255l-0.537,-0.254l-0.537,-0.251l-0.538,-0.251l-0.539,-0.249l-0.54,-0.247l-0.541,-0.245l-0.542,-0.244l-0.542,-0.243l-0.543,-0.24l-0.545,-0.239l-0.545,-0.238l-0.546,-0.236l-0.547,-0.234l-0.547,-0.232l-0.549,-0.231l-0.549,-0.23l-0.55,-0.227l-0.551,-0.226l-0.552,-0.225l-0.553,-0.222l-0.553,-0.222l-0.554,-0.219l-0.556,-0.218l-0.556,-0.216l-0.556,-0.214l-0.558,-0.213l-0.558,-0.211l-0.559,-0.21l-0.56,-0.207l-0.561,-0.206l-0.562,-0.205l-0.562,-0.203l-0.563,-0.201l-0.564,-0.199l-0.565,-0.198l-0.566,-0.196l-0.566,-0.194l-0.567,-0.192l-0.568,-0.191l-0.568,-0.189l-0.57,-0.188l-0.57,-0.185l-0.571,-0.184l-0.571,-0.183l-0.573,-0.18l-0.573,-0.179l-0.574,-0.177l-0.575,-0.175l-0.575,-0.174l-0.576,-0.172l-0.577,-0.17l-0.578,-0.169l-0.578,-0.166l-0.579,-0.165l-0.58,-0.163l-0.58,-0.162l-0.581,-0.159l-0.582,-0.158l-0.583,-0.156l-0.583,-0.154l-0.585,-0.153l-0.584,-0.151l-0.586,-0.149l-0.586,-0.147l-0.587,-0.145l-0.587,-0.144l-0.589,-0.142l-0.589,-0.14l-0.589,-0.138l-0.591,-0.137l-0.591,-0.135l-0.591,-0.132l-0.593,-0.131l-0.593,-0.13l-0.593,-0.127l-0.595,-0.126l-0.595,-0.124l-0.595,-0.122l-0.597,-0.12l-0.597,-0.118l-0.597,-0.116l-0.598,-0.115l-0.599,-0.113l-0.6,-0.111l-0.6,-0.109l-0.601,-0.107l-0.601,-0.106l-0.602,-0.103l-0.603,-0.102l-0.603,-0.1l-0.604,-0.098l-0.605,-0.096l-0.605,-0.094l-0.606,-0.093l-0.606,-0.09l-0.607,-0.089l-0.608,-0.087l-0.608,-0.085l-0.609,-0.083l-0.609,-0.081l-0.61,-0.079l-0.611,-0.077l-0.611,-0.076l-0.612,-0.073l-0.612,-0.072l-0.613,-0.069l-0.613,-0.068l-0.615,-0.066l-0.614,-0.064l-0.615,-0.062l-0.616,-0.06l-0.616,-0.058l-0.617,-0.057l-0.618,-0.054l-0.618,-0.052l-0.618,-0.051l-0.619,-0.048l-0.62,-0.047l-0.62,-0.045l-0.621,-0.042l-0.621,-0.041l-0.622,-0.039l-0.622,-0.037l-0.623,-0.035l-0.623,-0.032l-0.624,-0.031l-0.624,-0.029l-0.625,-0.027l-0.625,-0.025l-0.626,-0.023l-0.627,-0.021l-0.627,-0.019l-0.627,-0.017l-0.628,-0.015l-0.628,-0.013l-0.629,-0.011l-0.63,-0.009l-0.63,-0.008l-0.63,-0.005l-0.631,-0.003l-0.631,-0.001l-0.631,0.001Z" style="fill:#000;fill-opacity:0.0980392;"/></g><g id="Check"><path id="Fill-1" d="M117.677,191.152l48.163,47.615l133.583,-130.942l36.349,35.712l-169.932,165.738l-84.512,-82.411l36.349,-35.712" style="fill:#00d5ff;"/><path id="Fill-2" d="M129.491,273.563l-11.814,-11.903l11.814,-11.904l11.813,11.904l-11.813,11.903" style="fill:#00a9ff;"/><path id="Fill-3" d="M117.677,261.66l-11.813,-11.904l11.813,-11.904l11.814,11.904l-11.814,11.904" style="fill:#00afff;"/><path id="Fill-4" d="M105.864,249.756l-11.813,-11.904l11.813,-11.904l11.813,11.904l-11.813,11.904" style="fill:#00b4ff;"/><path id="Fill-5" d="M93.142,237.852l-11.814,-11.904l11.814,-11.904l11.813,11.904l-11.813,11.904" style="fill:#00baff;"/><path id="Fill-6" d="M142.213,261.66l-11.813,-11.904l11.813,-11.904l11.813,11.904l-11.813,11.904" style="fill:#00a5f0;"/><path id="Fill-7" d="M129.491,249.756l-11.814,-11.904l11.814,-11.904l11.813,11.904l-11.813,11.904" style="fill:#26c2ff;"/><path id="Fill-8" d="M117.677,237.852l-11.813,-11.904l11.813,-11.904l11.814,11.904l-11.814,11.904" style="fill:#00bcfb;"/><path id="Fill-9" d="M105.864,225.948l-11.813,-11.904l11.813,-11.904l11.813,11.904l-11.813,11.904" style="fill:#00c3fa;"/><path id="Fill-10" d="M154.026,249.756l-11.813,-11.904l11.813,-11.904l11.814,11.904l-11.814,11.904" style="fill:#00b2fb;"/><path id="Fill-11" d="M142.213,237.852l-11.813,-11.904l11.813,-11.904l11.813,11.904l-11.813,11.904" style="fill:#00bdf8;"/><path id="Fill-12" d="M129.491,225.948l-11.814,-11.904l11.814,-11.904l11.813,11.904l-11.813,11.904" style="fill:#00d3ff;"/><path id="Fill-13" d="M117.677,214.044l-11.813,-11.904l11.813,-10.988l11.814,11.904l-11.814,10.988" style="fill:#00d3ee;"/><path id="Fill-14" d="M165.84,309.275l-11.814,-11.904l11.814,-11.904l11.813,11.904l-11.813,11.904" style="fill:#00a9ff;"/><path id="Fill-15" d="M178.562,297.371l-11.813,-11.904l11.813,-11.904l11.813,11.904l-11.813,11.904" style="fill:#02a3ed;"/><path id="Fill-16" d="M190.375,285.467l-11.813,-11.904l11.813,-11.903l11.814,11.903l-11.814,11.904" style="fill:#03b2fb;"/><path id="Fill-17" d="M202.189,273.563l-11.814,-11.903l11.814,-11.904l11.813,11.904l-11.813,11.903" style="fill:#19c0ff;"/><path id="Fill-18" d="M214.911,261.66l-11.813,-11.904l11.813,-11.904l11.814,11.904l-11.814,11.904" style="fill:#07bcf8;"/><path id="Fill-19" d="M226.725,249.756l-11.814,-11.904l11.814,-11.904l11.813,11.904l-11.813,11.904" style="fill:#07baed;"/><path id="Fill-20" d="M238.538,237.852l-11.813,-11.904l11.813,-11.904l11.813,11.904l-11.813,11.904" style="fill:#09c5f3;"/><path id="Fill-21" d="M251.26,225.948l-11.813,-11.904l11.813,-11.904l11.814,11.904l-11.814,11.904" style="fill:#0ccaf2;"/><path id="Fill-22" d="M263.074,214.044l-11.814,-11.904l11.814,-10.988l11.813,11.904l-11.813,10.988" style="fill:#0fdafc;"/><path id="Fill-23" d="M274.887,203.056l-11.813,-11.904l11.813,-11.904l11.813,11.904l-11.813,11.904" style="fill:#0fd3ee;"/><path id="Fill-24" d="M287.609,191.152l-11.813,-11.904l11.813,-11.904l11.814,11.904l-11.814,11.904" style="fill:#11e2f8;"/><path id="Fill-25" d="M299.423,179.248l-11.814,-11.904l11.814,-11.904l11.813,11.904l-11.813,11.904" style="fill:#13ddeb;"/><path id="Fill-26" d="M311.236,167.344l-11.813,-11.904l11.813,-11.903l11.813,11.903l-11.813,11.904" style="fill:#16f8ff;"/><path id="Fill-27" d="M323.958,155.44l-11.813,-11.903l11.813,-11.904l11.814,11.904l-11.814,11.903" style="fill:#16e6e6;"/><path id="Fill-28" d="M154.026,297.371l-11.813,-11.904l11.813,-11.904l11.814,11.904l-11.814,11.904" style="fill:#0fafff;"/><path id="Fill-29" d="M165.84,285.467l-11.814,-11.904l11.814,-11.903l11.813,11.903l-11.813,11.904" style="fill:#0eb3fd;"/><path id="Fill-30" d="M178.562,273.563l-11.813,-11.903l11.813,-11.904l11.813,11.904l-11.813,11.903" style="fill:#0dbaff;"/><path id="Fill-31" d="M190.375,261.66l-11.813,-11.904l11.813,-11.904l11.814,11.904l-11.814,11.904" style="fill:#0cbcf9;"/><path id="Fill-32" d="M202.189,249.756l-11.814,-11.904l11.814,-11.904l11.813,11.904l-11.813,11.904" style="fill:#09c6ff;"/><path id="Fill-33" d="M214.911,237.852l-11.813,-11.904l11.813,-11.904l11.814,11.904l-11.814,11.904" style="fill:#08c4f6;"/><path id="Fill-34" d="M226.725,225.948l-11.814,-11.904l11.814,-11.904l11.813,11.904l-11.813,11.904" style="fill:#07c3ed;"/><path id="Fill-35" d="M238.538,214.044l-11.813,-10.988l11.813,-11.904l11.813,11.904l-11.813,10.988" style="fill:#07d8ff;"/><path id="Fill-36" d="M251.26,203.056l-11.813,-11.904l11.813,-11.904l11.814,11.904l-11.814,11.904" style="fill:#06d1f0;"/><path id="Fill-37" d="M263.074,191.152l-11.814,-11.904l11.814,-11.904l11.813,11.904l-11.813,11.904" style="fill:#05d5ee;"/><path id="Fill-38" d="M274.887,179.248l-11.813,-11.904l11.813,-11.904l11.813,11.904l-11.813,11.904" style="fill:#03d9ec;"/><path id="Fill-39" d="M287.609,167.344l-11.813,-11.904l11.813,-11.903l11.814,11.903l-11.814,11.904" style="fill:#02e3f0;"/><path id="Fill-40" d="M299.423,155.44l-11.814,-11.903l11.814,-11.904l11.813,11.904l-11.813,11.903" style="fill:#01e2e8;"/><path id="Fill-41" d="M311.236,143.537l-11.813,-11.904l11.813,-11.904l11.813,11.904l-11.813,11.904" style="fill:#00f2f2;"/><path id="Fill-42" d="M142.213,285.467l-11.813,-11.904l11.813,-11.903l11.813,11.903l-11.813,11.904" style="fill:#19b2ff;"/><path id="Fill-43" d="M154.026,273.563l-11.813,-11.903l11.813,-11.904l11.814,11.904l-11.814,11.903" style="fill:#1bb8ff;"/><path id="Fill-44" d="M165.84,261.66l-11.814,-11.904l11.814,-11.904l11.813,11.904l-11.813,11.904" style="fill:#33c4ff;"/><path id="Fill-45" d="M178.562,249.756l-11.813,-11.904l11.813,-11.904l11.813,11.904l-11.813,11.904" style="fill:#1cb4ec;"/><path id="Fill-46" d="M190.375,237.852l-11.813,-11.904l11.813,-11.904l11.814,11.904l-11.814,11.904" style="fill:#1fc2f4;"/><path id="Fill-47" d="M202.189,225.948l-11.814,-11.904l11.814,-11.904l11.813,11.904l-11.813,11.904" style="fill:#23d1ff;"/><path id="Fill-48" d="M214.911,214.044l-11.813,-11.904l11.813,-11.904l11.814,11.904l-11.814,11.904" style="fill:#23caef;"/><path id="Fill-49" d="M226.725,203.056l-11.814,-11.904l11.814,-11.904l11.813,11.904l-11.813,11.904" style="fill:#22c4e0;"/><path id="Fill-50" d="M238.538,191.152l-11.813,-11.904l11.813,-11.904l11.813,11.904l-11.813,11.904" style="fill:#26d2e9;"/><path id="Fill-51" d="M251.26,179.248l-11.813,-11.904l11.813,-11.904l11.814,11.904l-11.814,11.904" style="fill:#2cecff;"/><path id="Fill-52" d="M263.074,167.344l-11.814,-11.904l11.814,-11.903l11.813,11.903l-11.813,11.904" style="fill:#29dae4;"/><path id="Fill-53" d="M274.887,155.44l-11.813,-11.903l11.813,-11.904l11.813,11.904l-11.813,11.903" style="fill:#2bdee1;"/><path id="Fill-54" d="M287.609,143.537l-11.813,-11.904l11.813,-11.904l11.814,11.904l-11.814,11.904" style="fill:#2ce2df;"/><path id="Fill-55" d="M299.423,131.633l-11.814,-11.904l11.814,-11.904l11.813,11.904l-11.813,11.904" style="fill:#2fece0;"/></g></g></g></svg>